<svg xmlns="http://www.w3.org/2000/svg" xmlns:xlink="http://www.w3.org/1999/xlink" width="500" zoomAndPan="magnify" viewBox="0 0 375 374.999991" height="500" preserveAspectRatio="xMidYMid meet" version="1.0"><defs><clipPath id="a28aa1162d"><path d="M 187.5 0 C 83.945312 0 0 83.945312 0 187.5 C 0 291.054688 83.945312 375 187.5 375 C 291.054688 375 375 291.054688 375 187.5 C 375 83.945312 291.054688 0 187.5 0 Z M 187.5 0 " clip-rule="nonzero"/></clipPath><clipPath id="7833f261a3"><path d="M 97.355469 141 L 161 141 L 161 234 L 97.355469 234 Z M 97.355469 141 " clip-rule="nonzero"/></clipPath><clipPath id="dcc3546e46"><path d="M 214 141 L 277.355469 141 L 277.355469 234 L 214 234 Z M 214 141 " clip-rule="nonzero"/></clipPath><clipPath id="b266462c4a"><path d="M 156 117.515625 L 219 117.515625 L 219 257.765625 L 156 257.765625 Z M 156 117.515625 " clip-rule="nonzero"/></clipPath></defs><g clip-path="url(#a28aa1162d)"><rect x="-37.5" width="450" fill="#00c2ff" y="-37.499999" height="449.999989" fill-opacity="1"/></g><path fill="#00c2ff" d="M 154.234375 231.625 C 153.238281 231.625 152.257812 231.292969 151.472656 230.667969 L 101.054688 191 C 99.972656 190.148438 99.351562 188.871094 99.351562 187.496094 C 99.351562 186.117188 99.972656 184.839844 101.054688 183.980469 L 151.472656 144.320312 C 152.257812 143.695312 153.238281 143.363281 154.234375 143.363281 C 155.613281 143.363281 156.898438 143.980469 157.742188 145.066406 C 158.480469 146.003906 158.8125 147.171875 158.667969 148.351562 C 158.53125 149.539062 157.929688 150.597656 156.996094 151.335938 L 111.046875 187.496094 L 156.996094 223.648438 C 157.929688 224.394531 158.53125 225.449219 158.667969 226.628906 C 158.8125 227.816406 158.480469 228.980469 157.742188 229.921875 C 156.898438 231.003906 155.613281 231.625 154.234375 231.625 " fill-opacity="1" fill-rule="nonzero"/><g clip-path="url(#7833f261a3)"><path fill="#474747" d="M 154.234375 141.460938 C 152.8125 141.460938 151.421875 141.941406 150.300781 142.824219 L 99.878906 182.488281 C 98.332031 183.714844 97.449219 185.53125 97.449219 187.496094 C 97.449219 189.457031 98.339844 191.28125 99.878906 192.5 L 150.300781 232.167969 C 151.414062 233.042969 152.8125 233.527344 154.234375 233.527344 C 156.203125 233.527344 158.03125 232.636719 159.238281 231.09375 C 160.296875 229.761719 160.761719 228.097656 160.5625 226.410156 C 160.359375 224.71875 159.515625 223.207031 158.175781 222.15625 L 114.117188 187.496094 L 158.175781 152.832031 C 159.515625 151.773438 160.359375 150.269531 160.5625 148.582031 C 160.761719 146.890625 160.296875 145.226562 159.238281 143.886719 C 158.03125 142.34375 156.199219 141.460938 154.234375 141.460938 Z M 154.234375 145.265625 C 154.996094 145.265625 155.75 145.597656 156.25 146.238281 C 157.132812 147.355469 156.933594 148.96875 155.824219 149.84375 L 107.964844 187.496094 L 155.824219 225.144531 C 156.933594 226.019531 157.132812 227.632812 156.25 228.742188 C 155.75 229.390625 154.996094 229.726562 154.234375 229.726562 C 153.679688 229.726562 153.125 229.550781 152.652344 229.175781 L 102.230469 189.511719 C 101.613281 189.023438 101.253906 188.277344 101.253906 187.496094 C 101.253906 186.703125 101.613281 185.964844 102.230469 185.480469 L 152.652344 145.8125 C 153.117188 145.4375 153.679688 145.265625 154.234375 145.265625 " fill-opacity="1" fill-rule="nonzero"/></g><path fill="#00c2ff" d="M 220.761719 231.625 C 219.382812 231.625 218.105469 231.003906 217.246094 229.921875 C 215.726562 227.992188 216.058594 225.175781 218 223.648438 L 263.957031 187.496094 L 218 151.335938 C 216.058594 149.8125 215.726562 147 217.246094 145.066406 C 218.105469 143.980469 219.382812 143.363281 220.761719 143.363281 C 221.757812 143.363281 222.738281 143.695312 223.519531 144.320312 L 273.945312 183.980469 C 275.023438 184.839844 275.640625 186.117188 275.640625 187.496094 C 275.640625 188.871094 275.023438 190.148438 273.9375 191 L 223.519531 230.667969 C 222.738281 231.292969 221.757812 231.625 220.761719 231.625 " fill-opacity="1" fill-rule="nonzero"/><g clip-path="url(#dcc3546e46)"><path fill="#474747" d="M 220.761719 141.460938 C 218.796875 141.460938 216.972656 142.34375 215.753906 143.886719 C 213.578125 146.648438 214.058594 150.65625 216.820312 152.832031 L 260.875 187.496094 L 216.820312 222.15625 C 214.058594 224.324219 213.578125 228.339844 215.753906 231.09375 C 216.972656 232.636719 218.796875 233.527344 220.761719 233.527344 C 222.183594 233.527344 223.574219 233.042969 224.691406 232.167969 L 275.113281 192.5 C 276.660156 191.28125 277.542969 189.457031 277.542969 187.496094 C 277.542969 185.53125 276.660156 183.714844 275.121094 182.488281 L 224.699219 142.824219 C 223.582031 141.941406 222.183594 141.460938 220.761719 141.460938 Z M 220.761719 145.265625 C 221.316406 145.265625 221.878906 145.4375 222.34375 145.8125 L 272.765625 185.480469 C 273.382812 185.964844 273.738281 186.703125 273.738281 187.496094 C 273.738281 188.277344 273.382812 189.023438 272.765625 189.511719 L 222.34375 229.175781 C 221.878906 229.550781 221.316406 229.726562 220.761719 229.726562 C 220 229.726562 219.246094 229.390625 218.746094 228.742188 C 217.871094 227.632812 218.058594 226.019531 219.171875 225.144531 L 267.03125 187.496094 L 219.171875 149.84375 C 218.058594 148.96875 217.871094 147.355469 218.746094 146.238281 C 219.246094 145.597656 220.007812 145.265625 220.761719 145.265625 " fill-opacity="1" fill-rule="nonzero"/></g><path fill="#00c2ff" d="M 162.441406 255.5625 C 161.886719 255.5625 161.347656 255.457031 160.828125 255.257812 C 159.71875 254.824219 158.835938 253.988281 158.359375 252.902344 C 157.871094 251.804688 157.847656 250.597656 158.273438 249.488281 L 207.515625 122.277344 C 208.179688 120.574219 209.851562 119.425781 211.679688 119.425781 C 212.234375 119.425781 212.78125 119.53125 213.296875 119.730469 C 215.585938 120.621094 216.738281 123.214844 215.847656 125.511719 L 166.609375 252.710938 C 165.949219 254.414062 164.269531 255.5625 162.441406 255.5625 " fill-opacity="1" fill-rule="nonzero"/><g clip-path="url(#b266462c4a)"><path fill="#474747" d="M 211.679688 117.523438 C 209.070312 117.523438 206.679688 119.167969 205.746094 121.59375 L 156.5 248.792969 C 155.894531 250.382812 155.929688 252.109375 156.617188 253.671875 C 157.308594 255.222656 158.554688 256.421875 160.144531 257.03125 C 160.882812 257.320312 161.652344 257.464844 162.441406 257.464844 C 165.050781 257.464844 167.441406 255.832031 168.382812 253.394531 L 217.617188 126.195312 C 218.890625 122.917969 217.253906 119.21875 213.976562 117.957031 C 213.246094 117.667969 212.46875 117.523438 211.679688 117.523438 Z M 211.679688 121.328125 C 211.988281 121.328125 212.300781 121.386719 212.605469 121.5 C 213.929688 122.011719 214.582031 123.496094 214.074219 124.816406 L 164.832031 252.019531 C 164.441406 253.039062 163.46875 253.664062 162.441406 253.664062 C 162.128906 253.664062 161.820312 253.609375 161.515625 253.488281 C 160.191406 252.976562 159.535156 251.488281 160.054688 250.171875 L 209.289062 122.96875 C 209.683594 121.949219 210.652344 121.328125 211.679688 121.328125 " fill-opacity="1" fill-rule="nonzero"/></g></svg>