<svg xmlns="http://www.w3.org/2000/svg" xmlns:xlink="http://www.w3.org/1999/xlink" width="500" zoomAndPan="magnify" viewBox="0 0 375 374.999991" height="500" preserveAspectRatio="xMidYMid meet" version="1.0"><defs><clipPath id="68e7793c16"><path d="M 105.773438 84.539062 L 168 84.539062 L 168 258 L 105.773438 258 Z M 105.773438 84.539062 " clip-rule="nonzero"/></clipPath><clipPath id="9603d42e02"><path d="M 175 118 L 238 118 L 238 290.789062 L 175 290.789062 Z M 175 118 " clip-rule="nonzero"/></clipPath><clipPath id="1f144f1d44"><path d="M 258 91 L 269.273438 91 L 269.273438 102 L 258 102 Z M 258 91 " clip-rule="nonzero"/></clipPath></defs><rect x="-37.5" width="450" fill="#ffffff" y="-37.499999" height="449.999989" fill-opacity="1"/><rect x="-37.5" width="450" fill="#ffffff" y="-37.499999" height="449.999989" fill-opacity="1"/><g clip-path="url(#68e7793c16)"><path fill="#393536" d="M 105.820312 181.609375 L 105.820312 160.058594 C 110.183594 159.820312 113.472656 159.160156 115.683594 158.082031 C 117.898438 157.003906 119.8125 155.195312 121.425781 152.648438 C 123.039062 150.105469 124.144531 146.917969 124.742188 143.085938 C 125.21875 140.214844 125.460938 135.214844 125.460938 128.089844 C 125.460938 116.480469 126 108.382812 127.074219 103.804688 C 128.152344 99.226562 130.09375 95.542969 132.902344 92.757812 C 135.714844 89.976562 139.808594 87.777344 145.191406 86.160156 C 148.835938 85.082031 154.574219 84.542969 162.40625 84.542969 L 167.160156 84.542969 L 167.160156 106.003906 C 160.527344 106.003906 156.265625 106.378906 154.382812 107.125 C 152.5 107.875 151.109375 109.011719 150.210938 110.539062 C 149.316406 112.0625 148.867188 114.683594 148.867188 118.394531 C 148.867188 122.164062 148.597656 129.320312 148.058594 139.855469 C 147.761719 145.78125 146.984375 150.585938 145.726562 154.265625 C 144.472656 157.945312 142.871094 160.984375 140.929688 163.378906 C 138.988281 165.773438 136.011719 168.257812 132.007812 170.832031 C 135.535156 172.867188 138.417969 175.246094 140.660156 177.96875 C 142.902344 180.695312 144.621094 184 145.816406 187.890625 C 147.011719 191.78125 147.789062 196.992188 148.148438 203.515625 C 148.566406 213.453125 148.777344 219.796875 148.777344 222.550781 C 148.777344 226.5 149.253906 229.253906 150.210938 230.8125 C 151.167969 232.367188 152.617188 233.550781 154.5625 234.359375 C 156.503906 235.164062 160.703125 235.570312 167.160156 235.570312 L 167.160156 257.117188 L 162.40625 257.117188 C 154.335938 257.117188 148.148438 256.472656 143.84375 255.1875 C 139.539062 253.902344 135.910156 251.761719 132.949219 248.769531 C 129.988281 245.773438 128 242.078125 126.984375 237.679688 C 125.96875 233.28125 125.460938 226.351562 125.460938 216.894531 C 125.460938 205.882812 124.980469 198.726562 124.027344 195.433594 C 122.710938 190.644531 120.722656 187.21875 118.0625 185.152344 C 115.402344 183.089844 111.320312 181.90625 105.820312 181.609375 " fill-opacity="1" fill-rule="nonzero"/></g><path fill="#eeb30d" d="M 241.875 129.25 L 227.835938 129.25 L 227.835938 115.195312 L 241.875 115.195312 L 241.875 129.25 " fill-opacity="1" fill-rule="nonzero"/><path fill="#eeb30d" d="M 238.558594 157.355469 L 227.835938 157.355469 L 227.835938 146.617188 L 238.558594 146.617188 L 238.558594 157.355469 " fill-opacity="1" fill-rule="nonzero"/><g clip-path="url(#9603d42e02)"><path fill="#eeb30d" d="M 197.726562 139.988281 L 197.726562 129.25 L 208.449219 129.25 L 208.449219 139.988281 Z M 225.003906 190.1875 C 222.3125 188.121094 220.3125 184.695312 218.996094 179.90625 C 218.273438 177.203125 217.84375 172.027344 217.703125 164.382812 L 208.449219 164.382812 L 208.449219 150.328125 L 217.496094 150.328125 C 217.273438 144.910156 216.800781 140.6875 216.082031 137.660156 C 215.035156 133.261719 213.046875 129.550781 210.117188 126.527344 C 207.1875 123.507812 203.570312 121.363281 199.265625 120.105469 C 194.960938 118.847656 188.777344 118.222656 180.703125 118.222656 L 175.949219 118.222656 L 175.949219 139.679688 C 182.707031 139.679688 187.054688 140.085938 189 140.894531 C 190.941406 141.703125 192.285156 142.855469 193.035156 144.351562 C 193.78125 145.847656 194.183594 148.839844 194.246094 153.328125 C 194.542969 167.574219 195.019531 176.792969 195.679688 180.984375 C 196.695312 187.089844 198.609375 192.117188 201.417969 196.066406 C 203.449219 198.824219 206.679688 201.636719 211.105469 204.507812 C 207.695312 206.484375 204.898438 208.773438 202.71875 211.378906 C 200.535156 213.980469 198.789062 217.15625 197.472656 220.894531 C 196.160156 224.636719 195.351562 229.621094 195.050781 235.84375 C 194.574219 246.140625 194.320312 253.113281 194.289062 256.765625 C 194.257812 260.417969 193.78125 263.007812 192.855469 264.535156 C 191.925781 266.058594 190.480469 267.226562 188.503906 268.035156 C 186.53125 268.84375 182.347656 269.246094 175.949219 269.246094 L 175.949219 290.796875 L 180.703125 290.796875 C 188.535156 290.796875 194.273438 290.257812 197.921875 289.179688 C 203.363281 287.5625 207.484375 285.367188 210.296875 282.582031 C 213.105469 279.796875 215.035156 276.101562 216.082031 271.492188 C 217.128906 266.882812 217.652344 258.773438 217.652344 247.15625 C 217.652344 240.097656 217.890625 235.128906 218.367188 232.253906 C 219.027344 228.421875 220.148438 225.234375 221.730469 222.691406 C 223.3125 220.148438 225.214844 218.335938 227.425781 217.261719 C 229.636719 216.179688 232.925781 215.523438 237.289062 215.285156 L 237.289062 193.734375 C 231.789062 193.433594 227.695312 192.25 225.003906 190.1875 " fill-opacity="1" fill-rule="nonzero"/></g><g clip-path="url(#1f144f1d44)"><path fill="#eeb30d" d="M 269.242188 101.953125 L 258.515625 101.953125 L 258.515625 91.21875 L 269.242188 91.21875 L 269.242188 101.953125 " fill-opacity="1" fill-rule="nonzero"/></g><path fill="#eeb30d" d="M 215.46875 115.195312 L 195.449219 115.195312 L 195.449219 95.152344 L 215.46875 95.152344 L 215.46875 115.195312 " fill-opacity="1" fill-rule="nonzero"/></svg>